<svg width="208px" height="82px" viewBox="0 0 208 82" version="1.1" xmlns="http://www.w3.org/2000/svg" xmlns:xlink="http://www.w3.org/1999/xlink">
    <g id="Page-1" stroke="none" stroke-width="1" fill="none" fill-rule="evenodd">
        <g id="Super-Admin---Dashboard" transform="translate(-44.000000, -121.000000)" fill="#000000">
            <g id="Group-2" transform="translate(44.000000, 121.000000)">
                <g id="Group-15" fill-rule="nonzero">
                    <path d="M46.6874355,22.6400512 C47.9028982,23.6322149 48.5737705,24.959395 48.5737705,26.3638864 C48.5737705,27.7683779 47.9028982,29.0891153 46.6874355,30.0877216 C46.3796235,30.3389838 45.9771001,30.4678363 45.5745767,30.4678363 C45.1720534,30.4678363 44.76953,30.3389838 44.461718,30.0877216 C43.846094,29.5851971 43.846094,28.7669842 44.461718,28.2644597 C45.0852346,27.7554926 45.424617,27.08546 45.424617,26.3638864 C45.424617,25.6423128 45.0852346,24.9722802 44.461718,24.4633131 C43.846094,23.9607886 43.846094,23.1425757 44.461718,22.6400512 C45.077342,22.1375268 46.0718115,22.1375268 46.6874355,22.6400512 Z M51.3286177,33.9940201 C51.0130846,34.2415055 50.6004643,34.3684211 50.187844,34.3684211 C49.7752237,34.3684211 49.3626034,34.2415055 49.0470702,33.9940201 C48.4160039,33.4990493 48.4160039,32.6931354 49.0470702,32.1981646 C52.9548271,29.1331534 52.9548271,24.1390253 49.0470702,21.0676683 C48.4160039,20.5726976 48.4160039,19.7667836 49.0470702,19.2718129 C49.6781366,18.7768421 50.705642,18.7768421 51.3367083,19.2718129 C56.5065979,23.3331114 56.5065979,29.9327215 51.3286177,33.9940201 Z M56.2957306,15.3793045 C63.9014231,21.511998 63.9014231,31.4967896 56.2957306,37.6294831 C55.9867493,37.8722356 55.5826969,38 55.1707219,38 C54.7587469,38 54.3626171,37.8722356 54.0536358,37.6230949 C53.4356733,37.1248135 53.4356733,36.3135093 54.0536358,35.8152279 C60.4234033,30.6790971 60.4234033,22.316914 54.0536358,17.1807832 C53.4356733,16.6825019 53.4356733,15.8711976 54.0536358,15.3729163 C54.6715983,14.874635 55.6777681,14.874635 56.2957306,15.3793045 Z" id="Shape"></path>
                    <path d="M7.57649254,40.9459459 L7.57649254,27.972973 L15.4421642,27.972973 C20.0690299,27.972973 23.8283582,26.8378378 26.6623134,24.5135135 C29.5541045,22.1891892 31,19.1081081 31,15.2702703 C31,11.5405405 29.5541045,8.56756757 26.6623134,6.35135135 C23.7126866,4.13513514 20.011194,3 15.4421642,3 L0,3 L0,41 L7.57649254,40.9459459 Z M15.0373134,9.27027027 C17.4664179,9.27027027 19.4328358,9.81081081 20.9365672,10.8918919 C22.4402985,11.972973 23.1921642,13.4864865 23.1921642,15.3783784 C23.1921642,17.3783784 22.4402985,18.9459459 20.9365672,20.0810811 C19.375,21.2162162 17.4085821,21.8108108 15.0373134,21.8108108 L7.57649254,21.8108108 L7.57649254,9.27027027 L15.0373134,9.27027027 Z" id="Shape"></path>
                    <path d="M31,28.5292101 L31,28.3540687 L31.001,28.45 L31.0050772,28.0936917 C31.0998312,24.0506482 32.5202909,20.6178754 35.2188056,17.7953734 L35.5128205,17.4952977 C38.5018315,14.5178927 42.3113553,13 46.9413919,13 L46.9,13 L46.8994708,19.7725726 C44.5392245,19.793091 42.5936471,20.538358 41.0138704,22.0570519 L40.7875458,22.2824978 C39.1465201,23.975532 38.3260073,26.0772296 38.3260073,28.5875906 C38.3260073,31.0979517 39.1465201,33.1996493 40.7875458,34.8926835 C42.4285714,36.5857176 44.4798535,37.4030445 47,37.4030445 L46.9,37.401 L46.9002235,43.9999997 C42.4379678,43.9913149 38.7394404,42.5699462 35.8046411,39.7883199 L35.5128205,39.5047421 C32.5238095,36.5273371 31,32.7909858 31,28.3540687 L31.001,28.47 L31,28.5292101 Z" id="Combined-Shape"></path>
                    <g id="Group-14" transform="translate(64.000000, 0.000000)">
                        <path d="M0,54 L7.00751723,54 L7.00751723,38.0609244 C8.18478012,39.592437 9.58628357,40.7268908 11.2680877,41.5210084 C12.9498918,42.3151261 14.7438162,42.7121849 16.7059211,42.7121849 C20.7983111,42.7121849 24.1619194,41.2941176 26.7967459,38.4012605 C29.4315724,35.5084034 30.7209555,31.8781513 30.7209555,27.5105042 C30.7209555,23.1428571 29.4315724,19.5693277 26.852806,16.7331933 C24.2740397,13.8970588 20.9664915,12.4789916 16.9862218,12.4789916 C14.9119967,12.4789916 12.9498918,12.9327731 11.1559674,13.8403361 C9.36204302,14.7478992 7.8484193,16.052521 6.6711564,17.697479 L6.6711564,13.2163866 L0,13.2163866 L0,54 Z M23.3770775,27.5672269 C23.3770775,30.1197479 22.5922355,32.1617647 21.0225517,33.8067227 C19.4528678,35.4516807 17.4347029,36.302521 15.0241169,36.302521 C12.613531,36.302521 10.595366,35.5084034 9.02568219,33.8634454 C7.45599833,32.2184874 6.6711564,30.1764706 6.6711564,27.6806723 C6.6711564,25.2415966 7.45599833,23.1995798 9.02568219,21.5546218 C10.595366,19.9096639 12.5574709,19.1155462 14.9680568,19.1155462 C17.3786427,19.1155462 19.3407475,19.9663866 20.9104314,21.6113445 C22.4801153,23.2563025 23.2649572,25.2983193 23.2649572,27.737395 L23.3770775,27.5672269 Z" id="Shape"></path>
                        <path d="M48.207095,12.4789916 C43.8344043,12.4789916 40.1904953,13.9537815 37.219308,16.8466387 C34.3041808,19.7394958 32.8466172,23.3130252 32.8466172,27.5672269 C32.8466172,31.9348739 34.3041808,35.5084034 37.219308,38.4012605 C40.1904953,41.2941176 43.8344043,42.7689076 48.207095,42.7689076 C51.9631242,42.7689076 55.2146122,41.6344538 57.8494387,39.3088235 C60.5963855,36.9831933 62.2221295,33.9768908 62.838791,30.289916 L55.8873339,30.289916 C55.3827927,32.0483193 54.4297703,33.4663866 53.0282669,34.5441176 C51.6267634,35.6218487 50.0010194,36.1890756 48.1510349,36.1890756 C45.7404489,36.1890756 43.7783441,35.394958 42.2086603,33.75 C40.6389764,32.105042 39.8541345,30.0630252 39.8541345,27.6239496 C39.8541345,25.1848739 40.6389764,23.1428571 42.2086603,21.4978992 C43.7783441,19.8529412 45.7404489,19.0588235 48.1510349,19.0588235 C50.0010194,19.0588235 51.5707033,19.5693277 52.9161466,20.5903361 C54.31765,21.6680672 55.2146122,23.0294118 55.7191535,24.7310924 L62.7266707,24.7310924 C62.1100092,21.157563 60.4282051,18.2079832 57.7373184,15.9390756 C55.0464318,13.6701681 51.7949438,12.5357143 48.0389146,12.5357143 L48.207095,12.4789916 Z" id="Path"></path>
                        <path d="M83.2961178,41.9747899 L89.9672742,41.9747899 L89.9672742,23.6533613 C89.9672742,20.1932773 88.9021316,17.4705882 86.8279065,15.4852941 C84.7536814,13.5 81.8385542,12.4789916 78.082525,12.4789916 C74.6628565,12.4789916 71.8598497,13.4432773 69.561384,15.3718487 C67.2629184,17.3004202 66.0295953,19.7394958 65.8614149,22.6323529 L72.5886314,22.6323529 C72.812872,21.3277311 73.4295335,20.3067227 74.3825559,19.5693277 C75.3355782,18.8319328 76.5689012,18.4348739 78.0264648,18.4348739 C79.5400885,18.4348739 80.7734116,18.8319328 81.7264339,19.6260504 C82.6794563,20.4201681 83.1279374,21.4978992 83.1279374,22.802521 L83.1279374,23.1428571 L74.9431572,25.0714286 C71.579549,25.8655462 69.1129029,27 67.5992792,28.5315126 C66.0295953,30.0630252 65.2447534,32.0483193 65.2447534,34.487395 C65.2447534,36.9264706 66.1417156,38.9117647 67.8795799,40.4432773 C69.6174441,41.9747899 71.8598497,42.7689076 74.6067964,42.7689076 C76.3446607,42.7689076 77.9704047,42.3718487 79.5400885,41.6344538 C81.0537123,40.8970588 82.2870353,39.8193277 83.2400576,38.4012605 L83.2961178,41.9747899 Z M76.1764803,37.039916 C74.831037,37.039916 73.8219545,36.7563025 73.0931727,36.1890756 C72.3643909,35.6218487 72.0280301,34.8277311 72.0280301,33.75 C72.0280301,32.7857143 72.420451,31.9915966 73.1492328,31.3676471 C73.8780146,30.7436975 74.9992174,30.2331933 76.6249614,29.8361345 L83.0158171,28.3613445 L83.0158171,29.8361345 C83.0158171,31.8214286 82.3430954,33.4663866 80.9976521,34.8844538 C79.6522088,36.302521 78.0264648,37.039916 76.1204201,37.039916 L76.1764803,37.039916 Z" id="Shape"></path>
                        <path d="M110.704902,19.342437 C111.097323,19.342437 111.321563,19.342437 111.713984,19.3991597 L112.610946,19.5693277 L112.610946,12.8193277 C112.498826,12.762605 112.274586,12.762605 111.938225,12.762605 L111.097323,12.762605 C109.247338,12.762605 107.621594,13.2731092 106.10797,14.237395 C104.650407,15.2016807 103.417084,16.6197479 102.464061,18.4348739 L102.464061,13.3298319 L95.792905,13.3298319 L95.792905,42.0882353 L102.800422,42.0882353 L102.800422,28.1344538 C102.800422,25.4684874 103.473144,23.3697479 104.874647,21.8382353 C106.276151,20.25 108.182195,19.4558824 110.648842,19.4558824 L110.704902,19.342437 Z" id="Path"></path>
                        <path d="M127.069838,42.7121849 C129.200124,42.7121849 131.162228,42.2584034 132.956153,41.3508403 C134.694017,40.4432773 136.207641,39.1386555 137.384904,37.4369748 L137.384904,42.0315126 L144,42.0315126 L144,0 L136.992483,0 L136.992483,17.1869748 C135.81522,15.7121849 134.413716,14.5777311 132.675852,13.7268908 C130.994048,12.9327731 129.144063,12.5357143 127.181959,12.5357143 C123.145629,12.5357143 119.838081,13.9537815 117.203254,16.8466387 C114.568428,19.7394958 113.279044,23.3697479 113.279044,27.737395 C113.279044,32.105042 114.568428,35.6785714 117.147194,38.5147059 C119.72596,41.3508403 123.033508,42.7689076 127.013778,42.7689076 L127.069838,42.7121849 Z M120.510802,27.6806723 C120.510802,25.2415966 121.295644,23.1428571 122.865328,21.4978992 C124.435012,19.8529412 126.453177,19.0588235 128.863763,19.0588235 C131.274349,19.0588235 133.236454,19.9096639 134.806137,21.5546218 C136.375821,23.1995798 137.160663,25.2415966 137.160663,27.6806723 C137.160663,30.1197479 136.375821,32.1617647 134.806137,33.8067227 C133.236454,35.4516807 131.274349,36.302521 128.863763,36.302521 C126.453177,36.302521 124.435012,35.5084034 122.865328,33.8634454 C121.295644,32.2184874 120.510802,30.1764706 120.510802,27.737395 L120.510802,27.6806723 Z" id="Shape"></path>
                    </g>
                </g>
                <text id="Metrics" font-family="Puplic_Sans" font-size="27" font-weight="400" letter-spacing="-1.09038462">
                    <tspan x="114" id="Metrics" y="74">Metrics</tspan>
                </text>
            </g>
        </g>
    </g>
</svg>